<?xml version="1.0" encoding="iso-8859-1"?>
<!-- Generator: Adobe Illustrator 21.0.0, SVG Export Plug-In . SVG Version: 6.00 Build 0)  -->
<svg xmlns="http://www.w3.org/2000/svg" version="1.1" id="Capa_1" x="0px"
     y="0px" viewBox="0 0 512 512" style="enable-background:new 0 0 512 512;" xml:space="preserve" width="512"
     height="512">
<g>
	<path style="fill:#979FEF;"
          d="M495.105,307.299c0,0-13.198,23.401-15,26.1c-3.898,7.202-13.198,9.6-20.4,5.7   c-2.999-1.8-23.099-13.2-25.499-15c-8.101,6.901-17.401,12.601-28.2,16.501V361c0,8.399-6.599,15-15,15h-30   c-8.401,0-15-6.601-15-15v-20.4c-10.8-3.9-20.099-9.6-28.2-16.501l-46.8,25.201l-43.5,6.899l13.2-58.499l46.8-25.201   c-0.899-5.4-1.5-10.8-1.5-16.5s0.601-11.1,1.8-16.5l-46.8-25.201l-15.3-55.201l45.601,3.602l46.5,25.199   c8.401-7.2,17.701-12.599,28.2-16.5V151c0-8.401,6.599-15,15-15h30c8.401,0,15,6.599,15,15v20.4c10.8,3.9,19.799,9.6,27.9,16.5   c0,0,0,0,0.3,0c2.999-1.8,23.101-13.2,25.499-15c7.202-3.9,16.201-1.5,20.4,5.4c0,0,13.2,23.401,15,26.1   c4.2,7.2,1.802,16.5-5.4,20.7c-3.3,1.5-23.099,12.601-25.499,14.401c1.199,5.4,1.8,10.8,1.8,16.5s-0.601,11.1-1.5,16.5   c3.3,1.5,22.8,12.599,25.199,14.399C496.907,291.099,499.305,300.099,495.105,307.299z"/>
    <path style="fill:#737EE6;"
          d="M495.105,307.299c0,0-13.198,23.401-15,26.1c-3.898,7.202-13.198,9.6-20.4,5.7   c-2.999-1.8-23.099-13.2-25.499-15c-8.101,6.901-17.401,12.601-28.2,16.501V361c0,8.399-6.599,15-15,15h-15V136h15   c8.401,0,15,6.599,15,15v20.4c10.8,3.9,19.799,9.6,27.9,16.5c0,0,0,0,0.3,0c2.999-1.8,23.101-13.2,25.499-15   c7.202-3.9,16.201-1.5,20.4,5.4c0,0,13.2,23.401,15,26.1c4.2,7.2,1.802,16.5-5.4,20.7c-3.3,1.5-23.099,12.601-25.499,14.401   c1.199,5.4,1.8,10.8,1.8,16.5s-0.601,11.1-1.5,16.5c3.3,1.5,22.8,12.599,25.199,14.399   C496.907,291.099,499.305,300.099,495.105,307.299z"/>
    <path style="fill:#FF641A;"
          d="M255.105,442.299c0,0-13.198,23.401-15,26.1c-3.898,7.202-13.198,9.6-20.4,5.7   c-2.999-1.8-23.099-13.2-25.499-15c-8.101,6.901-17.401,12.301-28.2,16.501V497c0,8.399-6.599,15-15,15h-30   c-8.401,0-15-6.601-15-15v-21.4c-10.8-4.2-20.099-9.6-28.2-16.501c-2.999,1.8-23.101,13.2-25.499,15   c-7.202,3.9-16.501,1.501-20.4-5.7c-1.802-2.999-13.2-23.399-15-25.8c-4.2-7.2-1.802-16.199,5.099-20.4   c0.3,0,22.8-12.9,25.499-14.7c-0.899-5.7-1.5-10.8-1.5-16.5s0.601-11.1,1.8-16.5c-3.3-1.501-23.101-12.601-25.499-14.401   c-7.202-4.2-9.6-13.5-5.4-20.7c1.8-2.999,13.198-23.399,15-25.8c3.898-7.2,12.9-9.6,20.099-5.7c0,0,23.099,13.2,25.8,15   c8.401-7.2,17.701-12.599,28.2-16.5c0,0,0-47.401,0-50.4l30-30l30,30c0,0,0,47.399,0,50.4c10.499,3.9,19.799,9.3,28.2,16.5   l46.5-25.199l30.3,51.599l-46.8,25.201c1.199,5.4,1.8,10.8,1.8,16.5s-0.601,11.1-1.5,16.5c3.3,1.5,22.8,12.599,25.199,14.399   C256.907,426.099,259.305,435.099,255.105,442.299z"/>
    <path style="fill:#F03800;"
          d="M255.105,442.299c0,0-13.198,23.401-15,26.1c-3.898,7.202-13.198,9.6-20.4,5.7   c-2.999-1.8-23.099-13.2-25.499-15c-8.101,6.901-17.401,12.301-28.2,16.501V497c0,8.399-6.599,15-15,15h-15V226l30,30   c0,0,0,47.399,0,50.4c10.499,3.9,19.799,9.3,28.2,16.5l46.5-25.199l30.3,51.599l-46.8,25.201c1.199,5.4,1.8,10.8,1.8,16.5   s-0.601,11.1-1.5,16.5c3.3,1.5,22.8,12.599,25.199,14.399C256.907,426.099,259.305,435.099,255.105,442.299z"/>
    <path style="fill:#FFDA2D;"
          d="M271.306,162.7l-30.3,51.599l-46.8-25.201c-4.2,3.602-8.699,6.601-13.2,9.6   c-4.799,2.701-9.901,5.101-15,6.901c0,0,0,47.399,0,50.4h-60c0,0,0-47.401,0-50.4c-10.8-3.9-20.099-9.6-28.2-16.501   c-2.999,1.8-23.101,13.2-25.499,15c-7.202,3.9-16.501,1.501-20.4-5.7c-1.802-2.999-13.2-23.399-15-25.8   c-4.2-7.2-1.802-16.199,5.099-20.4c0.3,0,22.8-12.9,25.499-14.7c-0.899-5.4-1.5-10.8-1.5-16.5s0.601-11.1,1.8-16.5   c-3.3-1.501-23.101-12.601-25.499-14.401c-7.202-4.2-9.6-13.5-5.4-20.7c1.8-2.999,13.198-23.399,15-25.8   c3.898-7.2,12.9-9.6,20.099-5.7c0,0,23.099,13.2,25.8,15c8.401-7.2,17.701-12.599,28.2-16.5V15c0-8.401,6.599-15,15-15h30   c8.401,0,15,6.599,15,15v21.4c10.499,3.9,19.501,9.3,27.9,16.5c0,0,0,0,0.3,0c2.999-1.8,23.101-13.2,25.499-15   c7.202-3.9,16.201-1.5,20.4,5.4c0,0,13.2,23.401,15,26.1c4.2,7.2,1.802,16.5-5.4,20.7c-3.3,1.5-23.099,12.601-25.499,14.401   c1.199,5.4,1.8,10.8,1.8,16.5s-0.601,11.1-1.5,16.5L271.306,162.7z"/>
    <path style="fill:#FDBF00;"
          d="M271.306,162.7l-30.3,51.599l-46.8-25.201c-4.2,3.602-8.699,6.601-13.2,9.6   c-4.799,2.701-9.901,5.101-15,6.901c0,0,0,47.399,0,50.4h-30V0h15c8.401,0,15,6.599,15,15v21.4c10.499,3.9,19.501,9.3,27.9,16.5   c0,0,0,0,0.3,0c2.999-1.8,23.101-13.2,25.499-15c7.202-3.9,16.201-1.5,20.4,5.4c0,0,13.2,23.401,15,26.1   c4.2,7.2,1.802,16.5-5.4,20.7c-3.3,1.5-23.099,12.601-25.499,14.401c1.199,5.4,1.8,10.8,1.8,16.5s-0.601,11.1-1.5,16.5   L271.306,162.7z"/>
    <path style="fill:#47568C;"
          d="M431.505,215.499c-5.7-5.999-15.298-5.999-20.999,0l-34.501,34.2l-15,15l-19.501-19.2   c-5.7-5.999-15.298-5.999-20.999,0c-6,5.7-6,15.3,0,21l30,30c2.699,3.001,6.599,4.501,10.499,4.501s7.8-1.5,10.499-4.501   l4.501-4.499l55.499-55.501C437.505,230.799,437.505,221.199,431.505,215.499z"/>
    <path style="fill:#47568C;"
          d="M191.505,350.499c-5.7-5.999-15.298-5.999-20.999,0l-34.501,34.2l-15,15l-19.501-19.2   c-5.7-5.999-15.298-5.999-20.999,0c-6,5.7-6,15.3,0,21l30,30c2.699,3.001,6.599,4.501,10.499,4.501s7.8-1.5,10.499-4.501   l4.501-4.499l55.499-55.501C197.505,365.799,197.505,356.199,191.505,350.499z"/>
    <path style="fill:#47568C;"
          d="M191.505,80.499c-5.7-5.999-15.298-5.999-20.999,0l-34.501,34.2l-15,15l-19.501-19.2   c-5.7-5.999-15.298-5.999-20.999,0c-6,5.7-6,15.3,0,21l30,30c2.699,3.001,6.599,4.501,10.499,4.501s7.8-1.5,10.499-4.501   l4.501-4.499l55.499-55.501C197.505,95.799,197.505,86.199,191.505,80.499z"/>
    <path style="fill:#2C3B73;"
          d="M191.505,101.499L136.006,157v-42.301l34.501-34.2c5.7-5.999,15.298-5.999,20.999,0   C197.505,86.199,197.505,95.799,191.505,101.499z"/>
    <path style="fill:#2C3B73;"
          d="M191.505,371.499L136.006,427v-42.301l34.501-34.2c5.7-5.999,15.298-5.999,20.999,0   C197.505,356.199,197.505,365.799,191.505,371.499z"/>
    <path style="fill:#2C3B73;"
          d="M431.505,236.499L376.006,292v-42.301l34.501-34.2c5.7-5.999,15.298-5.999,20.999,0   C437.505,221.199,437.505,230.799,431.505,236.499z"/>
</g>















</svg>
